/vscmnt/brussel_pixiu_data/_data_brussel/112/vsc11236/PredSimResults/SUBJ10mtu3D/worker9.mot
version=1
nRows=4
nColumns=50
inDegrees=yes
endheader
                time	         pelvis_tilt	         pelvis_list	     pelvis_rotation	           pelvis_tx	           pelvis_ty	           pelvis_tz	       hip_flexion_r	     hip_adduction_r	      hip_rotation_r	        knee_angle_r	       ankle_angle_r	         mtp_angle_r	       hip_flexion_l	     hip_adduction_l	      hip_rotation_l	        knee_angle_l	       ankle_angle_l	         mtp_angle_l	    lumbar_extension	      lumbar_bending	     lumbar_rotation	 ercspn_r/activation	 intobl_r/activation	 extobl_r/activation	    abd_r/activation	    add_r/activation	hamstrings_r/activation	bifemsh_r/activation	glut_max_r/activation	iliopsoas_r/activation	rect_fem_r/activation	  vasti_r/activation	gastroc_r/activation	 soleus_r/activation	tib_ant_r/activation	 ercspn_l/activation	 intobl_l/activation	 extobl_l/activation	    abd_l/activation	    add_l/activation	hamstrings_l/activation	bifemsh_l/activation	glut_max_l/activation	iliopsoas_l/activation	rect_fem_l/activation	  vasti_l/activation	gastroc_l/activation	 soleus_l/activation	tib_ant_l/activation	
          0.00000000	         -3.98590815	         -0.69444450	          7.67665216	          0.00000000	          0.82208426	         -0.01285179	         31.26596158	         -2.20256920	         -5.63980897	         -7.16333996	          3.27453058	          0.26601789	        -17.07498019	         -0.80841082	          1.11194292	         -4.77398228	          8.02877726	         26.24954033	         -7.44342466	         -1.03077503	         -5.73660115	          0.12718352	          0.18556347	          0.01000000	          0.01000000	          0.09738285	          0.13162344	          0.25920166	          0.02682719	          0.09949119	          0.01000002	          0.01000000	          0.01000458	          0.01000000	          0.27820472	          0.07575656	          0.00999999	          0.01000000	          0.05924018	          0.01000000	          0.01246508	          0.23172873	          0.01000000	          0.33135103	          0.01000002	          0.00999999	          0.32496828	          0.24940410	          0.02453110	
          0.01119638	         -4.01978668	         -0.65802790	          7.81059028	          0.01566807	          0.82065659	         -0.01269218	         31.16917316	         -2.08748370	         -5.41453321	         -8.72069519	          2.99687395	          0.26453123	        -17.24745252	         -0.91470833	          0.83726329	         -6.32857198	          7.31876599	         27.92189758	         -7.27188577	         -0.61120413	         -6.04219951	          0.10718259	          0.15638166	          0.01000001	          0.00999999	          0.14806133	          0.11173989	          0.22019531	          0.06558109	          0.08384515	          0.01000001	          0.00999999	          0.01670784	          0.01186606	          0.30303920	          0.11501673	          0.00999999	          0.01000000	          0.04992404	          0.01000016	          0.01058249	          0.19528695	          0.01049803	          0.27924259	          0.01000002	          0.01000000	          0.29331665	          0.24012505	          0.02067332	
          0.02239276	         -4.04318910	         -0.63314580	          7.90370301	          0.03165878	          0.81942555	         -0.01245434	         30.90681721	         -1.98269503	         -5.12139141	        -10.17403208	          2.57579384	          0.25536326	        -17.31584630	         -1.03687223	          0.53355747	         -8.10595061	          6.47736005	         29.54436494	         -7.07611831	         -0.17109029	         -6.32620158	          0.09818411	          0.13178899	          0.01000000	          0.03434000	          0.12477714	          0.09584359	          0.18556729	          0.10182079	          0.07065962	          0.01000000	          0.00999999	          0.01408036	          0.01000000	          0.39688775	          0.12483279	          0.00999999	          0.01000000	          0.04207296	          0.01000002	          0.01031447	          0.16457602	          0.01000000	          0.23532875	          0.01000002	          0.01000000	          0.24718952	          0.22613282	          0.01742223	
          0.03358915	         -4.05788869	         -0.60669744	          7.94960727	          0.04775073	          0.81852596	         -0.01209512	         30.57250684	         -1.87450175	         -4.90426295	        -11.47992042	          2.02064444	          0.24260353	        -17.20081843	         -1.15975387	          0.19646718	        -10.21332074	          5.50774202	         31.03761174	         -6.88322503	          0.26608732	         -6.58110710	          0.11432211	          0.11106378	          0.01000000	          0.08797673	          0.17156506	          0.08077118	          0.15638488	          0.11941328	          0.05954765	          0.01000000	          0.00999999	          0.01186607	          0.00999999	          0.45381938	          0.15430378	          0.00999999	          0.01000000	          0.03545654	          0.01000002	          0.01241920	          0.13869470	          0.01000001	          0.19832082	          0.01000003	          0.01000000	          0.20831636	          0.20916232	          0.01468240	
